<svg width="105" height="32" fill="none" xmlns="http://www.w3.org/2000/svg"><path d="M20 0h-8C5.373 0 0 5.373 0 12v8c0 6.627 5.373 12 12 12h8c6.627 0 12-5.373 12-12v-8c0-6.627-5.373-12-12-12z" fill="#CF6F49"/><path d="M41.36 23V9h5.14c1.12 0 2.04.193 2.76.58.733.373 1.28.887 1.64 1.54.36.64.54 1.353.54 2.14a4.25 4.25 0 01-.68 2.34c-.44.707-1.133 1.22-2.08 1.54l2.9 5.86h-2.94l-2.6-5.52h-2.12V23h-2.56zm2.56-7.4h2.42c.853 0 1.48-.207 1.88-.62.4-.413.6-.96.6-1.64 0-.667-.2-1.2-.6-1.6-.387-.4-1.02-.6-1.9-.6h-2.4v4.46zm14.055 7.64c-1 0-1.886-.213-2.66-.64a4.632 4.632 0 01-1.82-1.8c-.44-.773-.66-1.667-.66-2.68 0-1.027.214-1.94.64-2.74a4.74 4.74 0 011.8-1.86c.774-.453 1.68-.68 2.72-.68.974 0 1.834.213 2.58.64a4.507 4.507 0 011.74 1.76c.427.733.64 1.553.64 2.46 0 .147-.006.3-.02.46 0 .16-.006.327-.02.5h-7.54c.054.773.32 1.38.8 1.82.494.44 1.087.66 1.78.66.52 0 .954-.113 1.3-.34.36-.24.627-.547.8-.92h2.6c-.186.627-.5 1.2-.94 1.72-.426.507-.96.907-1.6 1.2-.626.293-1.34.44-2.14.44zm.02-8.32c-.626 0-1.18.18-1.66.54-.48.347-.786.88-.92 1.6h4.94c-.04-.653-.28-1.173-.72-1.56-.44-.387-.986-.58-1.64-.58zm10.534 8.32c-.854 0-1.554-.133-2.1-.4-.547-.28-.954-.647-1.22-1.1a2.904 2.904 0 01-.4-1.5c0-.92.36-1.667 1.08-2.24.72-.573 1.8-.86 3.24-.86h2.52v-.24c0-.68-.194-1.18-.58-1.5-.387-.32-.867-.48-1.44-.48-.52 0-.974.127-1.36.38-.387.24-.627.6-.72 1.08h-2.5c.066-.72.306-1.347.72-1.88a4.08 4.08 0 011.64-1.22c.666-.293 1.413-.44 2.24-.44 1.413 0 2.526.353 3.34 1.06.813.707 1.22 1.707 1.22 3V23h-2.18l-.24-1.6a3.668 3.668 0 01-1.24 1.32c-.52.347-1.194.52-2.02.52zm.58-2c.733 0 1.3-.24 1.7-.72.413-.48.673-1.073.78-1.78h-2.18c-.68 0-1.167.127-1.46.38-.294.24-.44.54-.44.9 0 .387.146.687.44.9.293.213.68.32 1.16.32zM76.652 23V8.6h2.56V23h-2.56zm10.035.24c-1.013 0-1.906-.22-2.68-.66a4.877 4.877 0 01-1.84-1.84c-.44-.787-.66-1.687-.66-2.7 0-1.013.22-1.913.66-2.7a4.877 4.877 0 011.84-1.84c.774-.44 1.667-.66 2.68-.66 1.267 0 2.334.333 3.2 1 .867.653 1.42 1.56 1.66 2.72h-2.7c-.133-.48-.4-.853-.8-1.12-.386-.28-.846-.42-1.38-.42-.706 0-1.306.267-1.8.8-.493.533-.74 1.273-.74 2.22 0 .947.247 1.687.74 2.22.494.533 1.094.8 1.8.8.534 0 .994-.133 1.38-.4.4-.267.667-.647.8-1.14h2.7c-.24 1.12-.793 2.02-1.66 2.7-.866.68-1.933 1.02-3.2 1.02zm11.892 0c-.96 0-1.826-.22-2.6-.66a4.965 4.965 0 01-1.82-1.82c-.44-.787-.66-1.693-.66-2.72 0-1.027.227-1.927.68-2.7A4.921 4.921 0 0196 13.5c.774-.44 1.64-.66 2.6-.66.947 0 1.801.22 2.561.66a4.736 4.736 0 011.82 1.84c.453.773.68 1.673.68 2.7 0 1.027-.227 1.933-.68 2.72a4.775 4.775 0 01-1.82 1.82c-.774.44-1.634.66-2.58.66zm0-2.22c.667 0 1.247-.247 1.741-.74.493-.507.74-1.253.74-2.24 0-.987-.247-1.727-.74-2.22-.494-.507-1.067-.76-1.72-.76-.68 0-1.267.253-1.76.76-.48.493-.72 1.233-.72 2.22 0 .987.24 1.733.72 2.24.493.493 1.073.74 1.74.74z" fill="#2A2C1F"/></svg>