<svg width="340" height="21" fill="none" xmlns="http://www.w3.org/2000/svg"><g clip-path="url(#clip0_5_424)"><path d="M9.07 1.645a.992.992 0 011.86 0l2.028 5.072c.145.362.473.61.849.641l5.266.44c.892.074 1.254 1.232.574 1.837l-4.012 3.574a1.071 1.071 0 00-.324 1.038l1.225 5.343c.208.906-.74 1.622-1.503 1.136l-4.508-2.863a.973.973 0 00-1.05 0l-4.508 2.863c-.764.486-1.711-.23-1.503-1.136l1.225-5.343a1.071 1.071 0 00-.324-1.038L.353 9.635c-.68-.605-.318-1.763.574-1.838l5.266-.439a1.01 1.01 0 00.85-.64L9.07 1.644z" fill="#CF6F49"/></g><g clip-path="url(#clip1_5_424)"><path d="M57.07 1.645a.992.992 0 011.86 0l2.028 5.072c.145.362.473.61.849.641l5.266.44c.892.074 1.254 1.232.574 1.837l-4.012 3.574a1.071 1.071 0 00-.324 1.038l1.225 5.343c.208.906-.74 1.622-1.503 1.136l-4.508-2.863a.973.973 0 00-1.05 0l-4.508 2.863c-.764.486-1.711-.23-1.503-1.136l1.225-5.343a1.071 1.071 0 00-.324-1.038l-4.012-3.574c-.68-.605-.318-1.763.574-1.838l5.266-.439a1.01 1.01 0 00.85-.64l2.028-5.073z" fill="#CF6F49"/></g><g clip-path="url(#clip2_5_424)"><path d="M105.071 1.645a.992.992 0 011.858 0l2.029 5.072c.145.362.473.61.849.641l5.266.44c.892.074 1.254 1.232.574 1.837l-4.012 3.574a1.07 1.07 0 00-.324 1.038l1.225 5.343c.208.906-.739 1.622-1.503 1.136l-4.509-2.863a.973.973 0 00-1.049 0l-4.508 2.863c-.764.486-1.711-.23-1.503-1.136l1.225-5.343a1.07 1.07 0 00-.324-1.038l-4.012-3.574c-.68-.605-.318-1.763.574-1.838l5.266-.439c.376-.031.704-.279.849-.64l2.029-5.073z" fill="#CF6F49"/></g><g clip-path="url(#clip3_5_424)"><path d="M33.07 1.645a.992.992 0 011.86 0l2.028 5.072c.145.362.473.61.849.641l5.266.44c.892.074 1.254 1.232.574 1.837l-4.012 3.574a1.071 1.071 0 00-.324 1.038l1.225 5.343c.208.906-.74 1.622-1.503 1.136l-4.508-2.863a.973.973 0 00-1.05 0l-4.508 2.863c-.764.486-1.711-.23-1.503-1.136l1.225-5.343a1.071 1.071 0 00-.324-1.038l-4.012-3.574c-.68-.605-.318-1.763.574-1.838l5.266-.439a1.01 1.01 0 00.85-.64l2.028-5.073z" fill="#CF6F49"/></g><g clip-path="url(#clip4_5_424)"><path d="M81.07 1.645a.992.992 0 011.86 0l2.028 5.072c.145.362.473.61.849.641l5.266.44c.892.074 1.254 1.232.574 1.837l-4.012 3.574a1.071 1.071 0 00-.324 1.038l1.225 5.343c.208.906-.74 1.622-1.503 1.136l-4.508-2.863a.973.973 0 00-1.05 0l-4.508 2.863c-.764.486-1.711-.23-1.503-1.136l1.225-5.343a1.071 1.071 0 00-.324-1.038l-4.012-3.574c-.68-.605-.318-1.763.574-1.838l5.266-.439a1.01 1.01 0 00.85-.64l2.028-5.073z" fill="#CF6F49"/></g><defs><clipPath id="clip0_5_424"><path fill="#fff" transform="translate(0 1)" d="M0 0h20v20H0z"/></clipPath><clipPath id="clip1_5_424"><path fill="#fff" transform="translate(48 1)" d="M0 0h20v20H0z"/></clipPath><clipPath id="clip2_5_424"><path fill="#fff" transform="translate(96 1)" d="M0 0h20v20H0z"/></clipPath><clipPath id="clip3_5_424"><path fill="#fff" transform="translate(24 1)" d="M0 0h20v20H0z"/></clipPath><clipPath id="clip4_5_424"><path fill="#fff" transform="translate(72 1)" d="M0 0h20v20H0z"/></clipPath></defs></svg>