<svg width="48" height="48" fill="none" xmlns="http://www.w3.org/2000/svg"><path d="M0 8a8 8 0 018-8h32a8 8 0 018 8v32a8 8 0 01-8 8H8a8 8 0 01-8-8V8z" fill="#fff"/><path d="M29.313 13.313c0-.709.25-1.313.75-1.813.541-.542 1.187-.813 1.937-.813s1.375.271 1.875.813c.542.5.813 1.104.813 1.813 0 .75-.271 1.395-.813 1.937-.5.5-1.125.75-1.875.75s-1.396-.25-1.938-.75a2.759 2.759 0 01-.75-1.938zm5.375 24v-8H38l-3.375-10.125c-.208-.584-.542-1.042-1-1.375a2.59 2.59 0 00-1.563-.5h-.124a2.59 2.59 0 00-1.563.5c-.458.333-.792.791-1 1.375l-1.125 3.437c.708.375 1.292.938 1.75 1.688.458.708.688 1.5.688 2.375v10.625h4zm-10-14c.541 0 1-.188 1.375-.563.416-.375.625-.854.625-1.438 0-.541-.209-1-.625-1.375-.375-.416-.834-.625-1.375-.625-.584 0-1.063.209-1.438.625a1.87 1.87 0 00-.563 1.375c0 .584.188 1.063.563 1.438.375.375.854.563 1.438.563zM15.313 16c.75 0 1.374-.25 1.874-.75.542-.542.813-1.188.813-1.938 0-.708-.27-1.312-.813-1.812-.5-.542-1.125-.813-1.875-.813-.708 0-1.333.271-1.874.813-.5.5-.75 1.104-.75 1.813 0 .75.25 1.395.75 1.937.541.5 1.166.75 1.874.75zM18 37.313V28h2v-8c0-.75-.27-1.375-.813-1.875-.5-.542-1.125-.813-1.875-.813h-4c-.708 0-1.333.271-1.874.813-.5.5-.75 1.125-.75 1.875v8h2v9.313H18zm8.688 0V32H28v-5.313c0-.541-.208-1-.625-1.375-.375-.416-.833-.625-1.375-.625h-2.688c-.541 0-1.02.209-1.437.625a1.87 1.87 0 00-.563 1.375V32h1.375v5.313h4z" fill="#65665C"/></svg>