<svg width="48" height="48" fill="none" xmlns="http://www.w3.org/2000/svg"><path d="M0 8a8 8 0 018-8h32a8 8 0 018 8v32a8 8 0 01-8 8H8a8 8 0 01-8-8V8z" fill="#FAE8E1"/><path d="M36 21.313H24.875a7.79 7.79 0 00-1.688-2.75c-.708-.792-1.583-1.417-2.625-1.875a7.706 7.706 0 00-3.25-.688c-1.458 0-2.791.375-4 1.125A8.434 8.434 0 0010.376 20c-.708 1.208-1.063 2.542-1.063 4 0 1.458.355 2.792 1.063 4a8.997 8.997 0 002.938 2.938c1.208.708 2.541 1.062 4 1.062 1.166 0 2.25-.23 3.25-.688 1.041-.458 1.916-1.083 2.625-1.875a7.79 7.79 0 001.687-2.75h.438L28 29.313l2.688-2.625 2.625 2.625 5.374-5.375L36 21.313zM17.312 28a4.188 4.188 0 01-2-.5 4.732 4.732 0 01-1.437-1.438A3.934 3.934 0 0113.312 24c0-.75.188-1.417.563-2 .375-.625.854-1.104 1.438-1.438a3.823 3.823 0 012-.562c.75 0 1.416.188 2 .563A3.417 3.417 0 0120.75 22c.375.583.563 1.25.563 2s-.188 1.438-.563 2.063c-.333.583-.813 1.062-1.438 1.437-.583.333-1.25.5-2 .5z" fill="#CF6F49"/></svg>