<svg width="48" height="48" fill="none" xmlns="http://www.w3.org/2000/svg"><path d="M0 8a8 8 0 018-8h32a8 8 0 018 8v32a8 8 0 01-8 8H8a8 8 0 01-8-8V8z" fill="#FAE8E1"/><path d="M25.313 20h7.375l-7.376-7.313V20zm4 6.688V24H18.688v2.688h10.625zm0 5.312v-2.688H18.688V32h10.625zm-2.625-21.313l8 8v16c0 .709-.271 1.334-.813 1.876-.542.5-1.167.75-1.875.75H16c-.708 0-1.333-.25-1.875-.75-.542-.542-.813-1.167-.813-1.876l.063-21.374c0-.709.25-1.313.75-1.813.542-.542 1.167-.813 1.875-.813h10.688z" fill="#CF6F49"/></svg>