<svg width="48" height="48" fill="none" xmlns="http://www.w3.org/2000/svg"><path d="M0 8a8 8 0 018-8h32a8 8 0 018 8v32a8 8 0 01-8 8H8a8 8 0 01-8-8V8z" fill="#FAE8E1"/><path d="M33.313 26.688V16c0-.75-.271-1.375-.813-1.875-.5-.542-1.104-.813-1.813-.813H12c-.75 0-1.396.271-1.938.813-.5.5-.75 1.125-.75 1.875v10.688c0 .708.25 1.333.75 1.875.542.5 1.188.75 1.938.75h18.688a2.47 2.47 0 001.812-.75c.542-.542.813-1.167.813-1.875zm-12-1.375a4.188 4.188 0 01-2-.5 4.732 4.732 0 01-1.438-1.438 3.934 3.934 0 01-.563-2.063c0-.708.188-1.354.563-1.937a4.51 4.51 0 011.438-1.5 3.823 3.823 0 012-.563c.75 0 1.416.188 2 .563a3.823 3.823 0 011.437 1.5c.375.583.563 1.23.563 1.938 0 .75-.188 1.437-.563 2.062-.333.583-.813 1.063-1.438 1.438-.583.333-1.25.5-2 .5zm17.375-8V32c0 .75-.271 1.396-.813 1.938-.5.5-1.125.75-1.875.75H13.312V32H36V17.312h2.688z" fill="#CF6F49"/></svg>