<svg width="14" height="14" fill="none" xmlns="http://www.w3.org/2000/svg"><path d="M12.344 7.656h1.312v4c0 .354-.135.667-.406.938-.25.27-.552.406-.906.406a.592.592 0 01-.219.469.636.636 0 01-.469.187H2.344a.746.746 0 01-.5-.187.636.636 0 01-.188-.469c-.354 0-.666-.135-.937-.406a1.341 1.341 0 01-.375-.938v-4h2v-.5c0-.396.146-.74.437-1.031.313-.313.667-.469 1.063-.469.416 0 .791.167 1.125.5l.906 1.032c.125.145.313.302.563.468H11V2.22a.512.512 0 00-.156-.375.504.504 0 00-.406-.188.512.512 0 00-.376.157l-.843.843c.041.167.062.281.062.344 0 .23-.073.469-.219.719L7.22 1.875c.25-.146.49-.219.718-.219.105 0 .22.021.344.063l.844-.844a1.783 1.783 0 011.313-.531c.52 0 .968.187 1.343.562.375.354.563.792.563 1.313v5.437zM2.719 4.625a1.38 1.38 0 01-.375-.969c0-.375.125-.687.375-.937s.562-.375.937-.375.688.125.938.375c.27.25.406.562.406.937s-.135.698-.406.969c-.25.25-.563.375-.938.375s-.687-.125-.937-.375z" fill="#65665C"/></svg>