<svg width="14" height="10" fill="none" xmlns="http://www.w3.org/2000/svg"><path d="M13 4.188V2.343a1.81 1.81 0 00-.281-1A1.709 1.709 0 0012 .625a1.809 1.809 0 00-1-.281H8.344c-.271 0-.521.052-.75.156A1.84 1.84 0 007 .844 1.852 1.852 0 006.406.5a1.791 1.791 0 00-.75-.156H3a1.97 1.97 0 00-1.031.281 1.98 1.98 0 00-.719.719 1.98 1.98 0 00-.25 1v1.844a2.198 2.198 0 00-.5.656 2.09 2.09 0 00-.156.812v4h1.312V8.344h10.688v1.312h1.312v-4a1.79 1.79 0 00-.187-.812A1.814 1.814 0 0013 4.187zM8.344 1.655H11c.188 0 .344.073.469.219a.636.636 0 01.187.469v1.312h-4V2.344c0-.188.063-.344.188-.469a.688.688 0 01.5-.219zm-6 .688c0-.188.062-.344.187-.469A.592.592 0 013 1.656h2.656c.188 0 .344.073.469.219a.592.592 0 01.219.469v1.312h-4V2.344zM1.656 7V5.656a.6.6 0 01.188-.437.688.688 0 01.5-.219h9.312c.188 0 .344.073.469.219a.56.56 0 01.219.437V7H1.656z" fill="#65665C"/></svg>