<svg width="14" height="18" fill="none" xmlns="http://www.w3.org/2000/svg"><path d="M12 4h-1.68c0-.625-.156-1.185-.468-1.68A3.163 3.163 0 008.68 1.148 3.079 3.079 0 007 .68c-.625 0-1.185.156-1.68.468A3.475 3.475 0 004.11 2.32 3.29 3.29 0 003.68 4H2c-.469 0-.872.17-1.21.508C.476 4.82.32 5.21.32 5.68v10c0 .442.157.833.47 1.172.338.312.741.468 1.21.468h10c.469 0 .86-.156 1.172-.468.338-.339.508-.73.508-1.172v-10c0-.47-.17-.86-.508-1.172A1.528 1.528 0 0012 4zM5.32 7.32a.933.933 0 01-.234.625.795.795 0 01-.586.235.795.795 0 01-.586-.235.933.933 0 01-.234-.625V5.68h1.64v1.64zm1.68-5c.469 0 .86.17 1.172.508.338.313.508.703.508 1.172H5.32c0-.469.157-.86.47-1.172A1.653 1.653 0 017 2.32zm3.32 5a.933.933 0 01-.234.625.795.795 0 01-.586.235.795.795 0 01-.586-.235.933.933 0 01-.234-.625V5.68h1.64v1.64z" fill="#2A2C1F"/></svg>