<svg width="16" height="16" fill="none" xmlns="http://www.w3.org/2000/svg"><path d="M3.273 8.586c.73.73 1.615 1.094 2.657 1.094 1.041 0 1.927-.365 2.656-1.094.73-.73 1.094-1.615 1.094-2.656 0-1.042-.365-1.927-1.094-2.657C7.856 2.544 6.97 2.18 5.93 2.18c-1.042 0-1.927.364-2.657 1.093-.729.73-1.093 1.615-1.093 2.657 0 1.041.364 1.927 1.093 2.656zM10.93 9.68l4.14 4.14-1.25 1.25-4.14-4.14v-.664l-.235-.235c-.99.86-2.161 1.29-3.515 1.29-1.51 0-2.8-.521-3.867-1.563C1.02 8.716.5 7.44.5 5.93c0-1.51.52-2.787 1.563-3.828C3.13 1.034 4.418.5 5.93.5c1.51 0 2.786.534 3.828 1.602C10.8 3.143 11.32 4.419 11.32 5.93c0 .547-.13 1.172-.39 1.875-.26.677-.56 1.224-.899 1.64l.235.235h.664z" fill="#2A2C1F"/></svg>